<svg width="63" height="73" viewBox="0 0 63 73" fill="none" xmlns="http://www.w3.org/2000/svg">
<path d="M33.5271 19.7522C33.5273 17.03 32.7203 14.3689 31.208 12.1054C29.6957 9.84193 27.5462 8.07776 25.0312 7.03603C22.5162 5.99429 19.7488 5.72178 17.079 6.25297C14.4091 6.78416 11.9567 8.09518 10.032 10.0202C8.10731 11.9453 6.79671 14.3979 6.26598 17.0678C5.73525 19.7378 6.00824 22.5051 7.05041 25.0199C8.09257 27.5347 9.85711 29.684 12.1209 31.1958C14.3846 32.7077 17.0459 33.5143 19.768 33.5136C23.416 33.5086 26.9132 32.0571 29.4925 29.4773C32.0718 26.8976 33.5227 23.4002 33.5271 19.7522ZM8.36944 19.7522C8.3692 17.4984 9.03731 15.2952 10.2893 13.4211C11.5412 11.5471 13.3208 10.0863 15.403 9.2237C17.4851 8.36106 19.7763 8.13523 21.9868 8.57477C24.1973 9.01432 26.2278 10.0995 27.8216 11.6931C29.4153 13.2867 30.5007 15.3171 30.9405 17.5275C31.3803 19.738 31.1547 22.0292 30.2922 24.1114C29.4298 26.1937 27.9693 27.9734 26.0954 29.2256C24.2214 30.4777 22.0183 31.1461 19.7645 31.1461C16.7442 31.1417 13.8489 29.9398 11.7135 27.8039C9.57805 25.668 8.37675 22.7725 8.37299 19.7522H8.36944Z" fill="#B68C5A"/>
<path d="M14.7121 49.6176C11.6956 49.6176 8.80266 50.8159 6.66968 52.9489C4.53669 55.0819 3.33838 57.9749 3.33838 60.9914C3.33838 64.0079 4.53669 66.9008 6.66968 69.0338C8.80266 71.1668 11.6956 72.3651 14.7121 72.3651H18.0527C21.2617 72.3578 24.4026 71.4393 27.1098 69.7164C29.817 67.9935 31.9792 65.5372 33.3448 62.6333L35.3572 58.3267L37.7709 59.4584C37.9117 59.5244 38.0641 59.562 38.2194 59.5691C38.3747 59.5762 38.5299 59.5527 38.6761 59.4998C38.8223 59.4469 38.9566 59.3658 39.0715 59.261C39.1863 59.1562 39.2794 59.0298 39.3454 58.889L40.7043 55.9923L42.3072 56.744C42.4479 56.81 42.6003 56.8476 42.7556 56.8547C42.9109 56.8618 43.0661 56.8383 43.2123 56.7854C43.3585 56.7325 43.4929 56.6514 43.6077 56.5466C43.7225 56.4418 43.8156 56.3154 43.8816 56.1746L46.1473 51.3424C48.7938 50.9352 51.3298 49.9943 53.6014 48.5769C55.873 47.1595 57.8327 45.2951 59.3616 43.097C60.8905 40.8988 61.9567 38.4129 62.4952 35.7901C63.0338 33.1672 63.0337 30.4623 62.4947 27.8396C61.9558 25.2168 60.8893 22.731 59.3601 20.5331C57.8309 18.3352 55.8709 16.471 53.5991 15.0539C51.3273 13.6368 48.7912 12.6962 46.1447 12.2894C43.4983 11.8826 40.7967 12.018 38.2042 12.6873C37.0934 9.7885 35.3152 7.19223 33.0136 5.10903C30.7121 3.02582 27.952 1.51431 24.9572 0.697047C21.9623 -0.120217 18.8171 -0.22023 15.7764 0.405116C12.7357 1.03046 9.88511 2.36357 7.45585 4.29634C5.0266 6.22912 3.08699 8.70716 1.79431 11.5296C0.501635 14.3519 -0.107739 17.4392 0.0156013 20.5411C0.138941 23.643 0.991524 26.6722 2.50422 29.383C4.01692 32.0939 6.14715 34.4101 8.72221 36.1439V41.4768C8.72221 41.7908 8.84693 42.0919 9.06893 42.3139C9.29093 42.5359 9.59203 42.6606 9.90598 42.6606H11.6757V45.8568C11.6757 46.1707 11.8005 46.4718 12.0225 46.6938C12.2445 46.9158 12.5456 47.0406 12.8595 47.0406H15.916V48.409C15.9165 48.5675 15.8857 48.7244 15.8254 48.871C15.7651 49.0175 15.6766 49.1507 15.5647 49.263C15.4529 49.3753 15.3201 49.4644 15.1737 49.5252C15.0274 49.5861 14.8706 49.6175 14.7121 49.6176ZM37.7082 56.8115L27.3419 51.952L28.1965 50.1267L33.3803 52.557L38.5629 54.9873L37.7082 56.8115ZM23.8402 47.6964C23.9466 47.9917 24.1659 48.2327 24.4499 48.3664L26.0539 49.1181L24.6949 52.0148C24.6289 52.1556 24.5913 52.3079 24.5842 52.4632C24.5771 52.6186 24.6006 52.7737 24.6535 52.9199C24.7064 53.0661 24.7875 53.2005 24.8923 53.3153C24.9972 53.4302 25.1235 53.5232 25.2643 53.5892L28.3824 55.0512L26.3652 59.3779C25.6227 60.9562 24.4473 62.2911 22.9757 63.2275C21.5042 64.1638 19.7969 64.663 18.0527 64.667H14.7121C13.7389 64.667 12.8054 64.2804 12.1172 63.5922C11.429 62.904 11.0424 61.9706 11.0424 60.9973C11.0424 60.024 11.429 59.0906 12.1172 58.4024C12.8054 57.7142 13.7389 57.3276 14.7121 57.3276C17.0738 57.3248 19.3379 56.3853 21.0079 54.7154C22.6778 53.0454 23.6172 50.7813 23.6201 48.4197V47.0453H23.8201C23.7639 47.2609 23.7709 47.4881 23.8402 47.6999V47.6964ZM50.4942 16.0634C53.9078 17.6704 56.7066 20.3433 58.469 23.6793C60.2314 27.0153 60.8618 30.8337 60.2652 34.5591C59.6686 38.2846 57.8775 41.7152 55.1615 44.3341C52.4456 46.953 48.9521 48.6183 45.2074 49.079C45.0085 49.1034 44.8189 49.1778 44.6566 49.2954C44.4943 49.413 44.3645 49.5699 44.2793 49.7514L42.2444 54.0982L34.3853 50.4131L28.1314 47.4809L27.0447 46.9719C27.2805 46.8969 27.4866 46.7492 27.6333 46.55C27.78 46.3507 27.8599 46.1101 27.8615 45.8627V42.6665H29.6313C29.9452 42.6665 30.2463 42.5418 30.4683 42.3198C30.6903 42.0978 30.8151 41.7967 30.8151 41.4827V37.9882C31.9818 40.3218 33.7876 42.2758 36.022 43.6227C38.2564 44.9696 40.8275 45.6539 43.4359 45.596C46.0442 45.538 48.5824 44.7402 50.7548 43.2954C52.9272 41.8506 54.6444 39.8183 55.7063 37.4352C56.7683 35.0521 57.1313 32.4164 56.7531 29.835C56.3749 27.2535 55.2711 24.8327 53.5702 22.8544C51.8692 20.8761 49.6412 19.4218 47.1457 18.6609C44.6501 17.9 41.9897 17.8638 39.4744 18.5565C39.4021 17.3379 39.2163 16.1288 38.9192 14.9448C42.7912 13.9734 46.8798 14.3686 50.4942 16.0634ZM39.4933 21.0235C41.645 20.299 43.964 20.2336 46.153 20.8359C48.342 21.4381 50.3013 22.6804 51.7796 24.4035C53.2578 26.1267 54.1877 28.2521 54.45 30.5073C54.7123 32.7624 54.295 35.0445 53.2517 37.0609C52.2084 39.0774 50.5866 40.7362 48.5942 41.8247C46.6018 42.9133 44.3297 43.3819 42.0692 43.1706C39.8087 42.9592 37.6629 42.0775 35.9068 40.6385C34.1508 39.1995 32.8646 37.2687 32.2131 35.0939C34.3378 33.3833 36.0825 31.2485 37.336 28.8259C38.5895 26.4033 39.3242 23.7459 39.4933 21.0235ZM11.0898 40.293V35.4975C11.0899 35.2954 11.0384 35.0966 10.9399 34.92C10.8415 34.7435 10.6995 34.5951 10.5275 34.489C7.32641 32.484 4.86461 29.492 3.51381 25.9646C2.16301 22.4373 1.99656 18.5663 3.0396 14.936C4.08263 11.3058 6.27852 8.11345 9.29566 5.84113C12.3128 3.5688 15.9874 2.33984 19.7645 2.33984C23.5416 2.33984 27.2162 3.5688 30.2333 5.84113C33.2505 8.11345 35.4463 11.3058 36.4894 14.936C37.5324 18.5663 37.366 22.4373 36.0152 25.9646C34.6644 29.492 32.2026 32.484 29.0015 34.489C28.8316 34.5954 28.6916 34.7432 28.5945 34.9186C28.4974 35.094 28.4464 35.2912 28.4463 35.4916V40.2871H11.0898V40.293ZM14.0433 44.673V42.6606H25.4928V44.673H14.0433ZM18.2836 48.409V47.0453H21.2525V48.4137C21.2506 50.1478 20.5609 51.8103 19.3348 53.0364C18.1086 54.2626 16.4462 54.9522 14.7121 54.9541C13.1109 54.9541 11.5753 55.5902 10.4431 56.7224C9.31092 57.8546 8.67486 59.3902 8.67486 60.9914C8.67486 62.5926 9.31092 64.1282 10.4431 65.2604C11.5753 66.3926 13.1109 67.0286 14.7121 67.0286H18.0527C20.2471 67.0237 22.3948 66.3957 24.2462 65.2177C26.0975 64.0397 27.5762 62.3602 28.5102 60.3746L30.5002 56.113L33.1909 57.3702L31.1998 61.6318C30.0262 64.1287 28.1674 66.2408 25.8398 67.7221C23.5122 69.2034 20.8117 69.993 18.0527 69.9987H14.7121C12.3235 69.9987 10.0328 69.0499 8.34379 67.3609C6.6548 65.6719 5.70594 63.3811 5.70594 60.9926C5.70594 58.604 6.6548 56.3132 8.34379 54.6242C10.0328 52.9352 12.3235 51.9864 14.7121 51.9864C15.6593 51.9854 16.5673 51.6087 17.2369 50.9389C17.9065 50.269 18.283 49.3609 18.2836 48.4137V48.409Z" fill="#B68C5A"/>
<path d="M19.6438 36.1215H24.953V38.4891H19.6438V36.1215Z" fill="#B68C5A"/>
<path d="M35.1747 48.7725L36.1667 46.6227L40.9885 48.8478L39.9965 50.9975L35.1747 48.7725Z" fill="#B68C5A"/>
</svg>
