<svg width="74" height="73" viewBox="0 0 74 73" fill="none" xmlns="http://www.w3.org/2000/svg">
<path d="M6.38671e-07 1.2175V7.33542C0.00244496 8.01037 0.551987 8.55539 1.22693 8.5528H2.44431V63.5498H1.22693C0.551987 63.5473 0.0027016 64.0922 6.38671e-07 64.7672V70.8851C0.00244496 71.56 0.551975 72.105 1.22693 72.1024H72.1095C72.7817 72.1012 73.3266 71.5572 73.3293 70.8851V64.7672C73.3268 64.095 72.7817 63.5511 72.1095 63.5498H70.8826V8.5528H72.1095C72.7817 8.55155 73.3266 8.00755 73.3293 7.33542V1.2175C73.3268 0.545368 72.7817 0.00150782 72.1095 0.00012207H1.16368C0.454972 0.00936041 -0.000622626 0.589204 6.38671e-07 1.2175ZM2.44431 2.44447H70.8826V6.10845H15.8952C14.2291 6.0715 14.2291 8.58975 15.8952 8.5528H19.5593V45.5779C18.4603 45.9146 17.484 46.4788 16.7068 47.256C15.3905 48.5723 14.6682 50.4479 14.6682 52.5527V57.3244C14.6323 58.9895 17.1485 58.9895 17.1125 57.3244V52.5527C17.1126 50.991 17.6077 49.8114 18.4302 48.989C18.7466 48.6726 19.1341 48.4222 19.5593 48.2107V63.5498H17.1125V62.287C17.1485 60.6219 14.6323 60.6219 14.6682 62.287V63.5498H4.88862V8.5528H10.997C12.6631 8.58975 12.6631 6.07145 10.997 6.10845H2.44431V2.44447ZM22.0036 8.5528H35.4449V20.8602C30.6242 21.4612 26.8826 25.5648 26.8826 30.5469V34.2204C26.8826 37.8331 28.855 40.9843 31.7736 42.6777V45.2174H22.0036V8.5528ZM37.8916 8.5528H51.3329V45.2174H41.5533V42.6777C44.4719 40.9843 46.4419 37.8331 46.4419 34.2204V30.5469C46.4419 25.5682 42.7074 21.4679 37.8916 20.8626V8.5528ZM53.7772 8.5528H68.4383V63.5498H65.994C64.3279 63.5128 64.3279 66.0311 65.994 65.9941H70.8826V69.6582H2.44431V65.9941H61.103C62.7691 66.0311 62.7691 63.5128 61.103 63.5498H58.6682V52.5527C58.6682 50.4479 57.946 48.5723 56.6297 47.256C55.8525 46.4788 54.8761 45.9146 53.7772 45.5779V8.5528ZM35.4449 23.3284V41.4483C31.9529 40.8753 29.3293 37.8875 29.3293 34.2204V30.5469C29.3293 26.8798 31.9529 23.8999 35.4449 23.3284ZM37.8916 23.331C41.3788 23.9063 43.9976 26.8832 43.9976 30.5469V34.2204C43.9976 37.8842 41.3788 40.8692 37.8916 41.446V23.331ZM34.2179 43.6778C34.6181 43.7813 35.0267 43.8644 35.4449 43.9166V48.6311L34.2179 46.1509V43.6778ZM39.1089 43.6778V46.1676L37.8916 48.5641V43.9142C38.3063 43.862 38.7119 43.7808 39.1089 43.6778ZM22.0036 47.6618H32.2343L35.4449 54.1473V63.5498H22.0036V47.6618ZM41.0926 47.6618H51.3329V63.5498H37.8916V53.9635L41.0926 47.6618ZM53.7772 48.2131C54.1979 48.4242 54.5819 48.6742 54.8967 48.989C55.7192 49.8114 56.2239 50.9911 56.2239 52.5527V63.5498H53.7772V48.2131Z" fill="#B68C5A"/>
</svg>
