<svg width="63" height="73" viewBox="0 0 63 73" fill="none" xmlns="http://www.w3.org/2000/svg">
<path d="M22.1687 65.3796C21.916 65.3796 21.6679 65.2853 21.476 65.0919C21.0921 64.7052 21.0921 64.0779 21.476 63.6911L23.9616 61.1867C24.7995 60.3424 25.7731 59.6868 26.8685 59.2293C27.9591 58.7719 29.1154 58.5407 30.295 58.5407H43.2098C45.1618 58.5407 47.1887 57.6069 48.6305 56.041L60.3002 42.4906C60.7496 41.9671 61.0023 41.2974 61.0023 40.604C61.0023 39.7692 60.6419 38.9721 60.0146 38.425C58.8257 37.3827 57.0141 37.5147 55.9796 38.7127L47.4555 48.6079C47.0998 49.0229 46.4772 49.0654 46.0699 48.7069C45.6627 48.3485 45.6159 47.7212 45.9716 47.3108L54.4957 37.4157C56.2418 35.3923 59.2938 35.1707 61.3019 36.9299C62.3598 37.8543 62.9637 39.1938 62.9637 40.604C62.9637 41.7737 62.5424 42.9057 61.7841 43.7876L50.1003 57.3522C50.0956 57.3616 50.0862 57.3663 50.0816 57.3758C48.2466 59.3756 45.7376 60.5217 43.2052 60.5217H30.2903C28.4226 60.5217 26.6672 61.2527 25.3518 62.5828L22.8662 65.0872C22.6743 65.2853 22.4215 65.3796 22.1687 65.3796Z" fill="#B68C5A"/>
<path d="M15.4375 72.1621C15.1847 72.1621 14.9366 72.0677 14.7447 71.8696L0.85614 57.8759C0.673581 57.6919 0.565918 57.4373 0.565918 57.1778C0.565918 56.9184 0.6689 56.6638 0.85614 56.4798L7.58742 49.6975C7.97126 49.3108 8.59383 49.3108 8.97768 49.6975L22.8662 63.6913C23.0488 63.8752 23.1564 64.1299 23.1564 64.3893C23.1564 64.6487 23.0534 64.9034 22.8662 65.0874L16.1349 71.8696C15.943 72.0677 15.6902 72.1621 15.4375 72.1621ZM2.93919 57.1778L15.4375 69.7708L20.7785 64.3893L8.28021 51.7964L2.93919 57.1778Z" fill="#B68C5A"/>
<path d="M43.0132 53.0367H29.3073C28.7643 53.0367 28.3242 52.5934 28.3242 52.0462C28.3242 51.4991 28.7643 51.0558 29.3073 51.0558H43.0132C44.5205 51.0558 45.7469 49.8201 45.7469 48.3061C45.7469 48.2212 45.7423 48.1363 45.7376 48.0608C45.7376 48.0561 45.7376 48.0561 45.7376 48.0514C45.6814 47.4147 45.4005 46.8157 44.9512 46.3582C44.4362 45.8394 43.7481 45.5517 43.0179 45.5517H17.3707C15.503 45.5517 13.7476 46.2827 12.4322 47.6128L8.97767 51.0935C8.59383 51.4803 7.97125 51.4803 7.58741 51.0935C7.20357 50.7068 7.20357 50.0795 7.58741 49.6927L11.042 46.212C11.8799 45.3677 12.8535 44.7121 13.9442 44.2546C15.0349 43.7971 16.1864 43.566 17.3707 43.566H43.0085C44.2631 43.566 45.4427 44.0566 46.3321 44.9527C47.1091 45.7356 47.5912 46.7685 47.6895 47.8675C47.7036 48.0089 47.7083 48.1552 47.7083 48.3014C47.7083 50.9143 45.6018 53.0367 43.0132 53.0367Z" fill="#B68C5A"/>
<path d="M33.5249 42.269H30.0094C29.4664 42.269 29.0264 41.8257 29.0264 41.2786V9.93296C29.0264 9.38585 29.4664 8.9425 30.0094 8.9425C30.5524 8.9425 30.9924 9.38585 30.9924 9.93296V40.2881H32.5418V9.93296C32.5418 9.38585 32.9819 8.9425 33.5249 8.9425C34.0678 8.9425 34.5079 9.38585 34.5079 9.93296V41.2786C34.5079 41.8257 34.0678 42.269 33.5249 42.269Z" fill="#B68C5A"/>
<path d="M39.1233 45.5564H24.4063C23.8633 45.5564 23.4233 45.1131 23.4233 44.566V41.2833C23.4233 40.7362 23.8633 40.2928 24.4063 40.2928H39.1233C39.6663 40.2928 40.1063 40.7362 40.1063 41.2833V44.566C40.1063 45.1131 39.6663 45.5564 39.1233 45.5564ZM25.3893 43.5755H38.1403V42.2738H25.3893V43.5755Z" fill="#B68C5A"/>
<path d="M31.7648 11.3101C29.56 11.3101 27.7672 9.50371 27.7672 7.28225C27.7672 5.0608 29.56 3.25439 31.7648 3.25439C33.9695 3.25439 35.7624 5.0608 35.7624 7.28225C35.7624 9.50371 33.9695 11.3101 31.7648 11.3101ZM31.7648 5.23531C30.646 5.23531 29.7332 6.15502 29.7332 7.28225C29.7332 8.40949 30.646 9.3292 31.7648 9.3292C32.8835 9.3292 33.7963 8.40949 33.7963 7.28225C33.7963 6.15502 32.8835 5.23531 31.7648 5.23531Z" fill="#B68C5A"/>
<path d="M16.3459 31.7562C12.0955 31.7562 8.63625 28.2708 8.63625 23.9882C8.63625 23.8609 8.65965 23.7335 8.70646 23.6156L15.4331 6.91461C15.5829 6.54201 15.9433 6.29675 16.3459 6.29675C16.7484 6.29675 17.1042 6.54201 17.2586 6.91461L23.9852 23.6156C24.0321 23.7335 24.0555 23.8609 24.0555 23.9882C24.0555 28.2708 20.5962 31.7562 16.3459 31.7562ZM10.6023 24.1721C10.7006 27.2803 13.2377 29.7753 16.3459 29.7753C19.454 29.7753 21.9911 27.2803 22.0894 24.1721L16.3459 9.91428L10.6023 24.1721Z" fill="#B68C5A"/>
<path d="M23.0722 24.9738H9.61433C9.07133 24.9738 8.63132 24.5305 8.63132 23.9834C8.63132 23.4363 9.07133 22.9929 9.61433 22.9929H23.0722C23.6152 22.9929 24.0552 23.4363 24.0552 23.9834C24.0552 24.5305 23.6152 24.9738 23.0722 24.9738Z" fill="#B68C5A"/>
<path d="M47.184 31.7559C42.9337 31.7559 39.4744 28.2705 39.4744 23.9879C39.4744 23.8606 39.4978 23.7332 39.5446 23.6153L46.2759 6.9096C46.4257 6.537 46.7861 6.29175 47.1887 6.29175C47.5913 6.29175 47.947 6.537 48.1015 6.9096L54.8281 23.6106C54.8749 23.7285 54.8983 23.8559 54.8983 23.9832C54.8983 28.2705 51.4391 31.7559 47.184 31.7559ZM41.4404 24.1719C41.5387 27.28 44.0759 29.775 47.184 29.775C50.2922 29.775 52.8293 27.28 52.9276 24.1719L47.184 9.91871L41.4404 24.1719Z" fill="#B68C5A"/>
<path d="M53.9153 24.9738H40.4574C39.9144 24.9738 39.4744 24.5305 39.4744 23.9834C39.4744 23.4363 39.9144 22.9929 40.4574 22.9929H53.9153C54.4583 22.9929 54.8983 23.4363 54.8983 23.9834C54.8983 24.5305 54.4583 24.9738 53.9153 24.9738Z" fill="#B68C5A"/>
<path d="M51.2518 8.27266H34.7794C34.2364 8.27266 33.7963 7.82932 33.7963 7.28221C33.7963 6.7351 34.2364 6.29175 34.7794 6.29175H51.2518C51.7948 6.29175 52.2348 6.7351 52.2348 7.28221C52.2348 7.82932 51.7948 8.27266 51.2518 8.27266Z" fill="#B68C5A"/>
<path d="M28.7502 8.27266H12.2778C11.7348 8.27266 11.2948 7.82932 11.2948 7.28221C11.2948 6.7351 11.7348 6.29175 12.2778 6.29175H28.7502C29.2932 6.29175 29.7332 6.7351 29.7332 7.28221C29.7332 7.82932 29.2932 8.27266 28.7502 8.27266Z" fill="#B68C5A"/>
<path d="M33.2346 5.62215C32.6916 5.62215 32.2516 5.1788 32.2516 4.63169V2.47155C32.2516 2.19799 32.0316 1.98104 31.7648 1.98104C31.498 1.98104 31.278 2.20271 31.278 2.47155V4.63169C31.278 5.1788 30.8379 5.62215 30.2949 5.62215C29.7519 5.62215 29.3119 5.1788 29.3119 4.63169V2.47155C29.3119 1.10849 30.412 0.00012207 31.7648 0.00012207C33.1176 0.00012207 34.2176 1.10849 34.2176 2.47155V4.63169C34.2176 5.1788 33.7776 5.62215 33.2346 5.62215Z" fill="#B68C5A"/>
</svg>
