<svg width="90" height="72" viewBox="0 0 90 72" fill="none" xmlns="http://www.w3.org/2000/svg">
<path d="M40.2425 70.9869C39.5945 70.9849 38.9706 70.7442 38.4957 70.3119L8.35876 43.3358C0.433997 36.0842 -2.14262 24.8154 1.86781 14.9451C5.36621 5.88493 13.2718 0.161479 22.4999 0.00012207H22.977C29.1995 0.0128962 35.2299 2.11524 40.0613 5.95687C41.677 7.20066 42.1862 9.38099 41.283 11.1889L35.5786 22.7043L41.7216 29.1203C42.2295 29.6501 42.2295 30.4757 41.7216 31.0055L37.2657 35.6619L44.3517 41.8305C44.8164 42.2359 44.9544 42.8927 44.6901 43.4447L42.2528 48.5389L46.3209 56.7755C46.6195 57.3805 46.4294 58.1087 45.8693 58.4986L41.7085 61.397L42.8081 68.0718C42.9872 69.126 42.4567 70.1734 41.4923 70.6716C41.1087 70.8767 40.6797 70.9849 40.2425 70.9869ZM22.977 2.75394H22.5548C14.3796 2.89177 7.63259 7.81314 4.50345 15.9159C0.898666 24.7327 3.18289 34.8121 10.2566 41.3074L39.926 67.8613L38.7935 60.9889C38.7078 60.4712 38.9301 59.9508 39.3667 59.6469L43.2734 56.9287L39.4332 49.1393C39.2486 48.7661 39.2459 48.3311 39.4257 47.9553L41.7017 43.202L34.3219 36.7773C34.0384 36.5306 33.8682 36.1816 33.851 35.8105C33.8339 35.4394 33.9711 35.077 34.2306 34.8061L38.7709 30.0649L32.8668 23.899C32.4687 23.4836 32.3733 22.8704 32.6266 22.3574L38.7537 9.98944C39.0756 9.33931 38.891 8.5574 38.3097 8.11165C33.9753 4.65997 28.5626 2.7694 22.977 2.75394Z" fill="#B68C5A"/>
<path d="M49.9881 72.0001C48.8309 72.0008 47.8179 71.2404 47.5172 70.1459L46.4348 66.2202C46.3497 65.9109 46.3772 65.5828 46.5117 65.2917L49.5187 58.8065L49.0101 48.6054C48.9957 48.2915 49.0897 47.9829 49.2771 47.7281L53.7961 41.6355L48.1734 36.7787C47.8906 36.5353 47.7197 36.1904 47.6991 35.822C47.6778 35.4535 47.8089 35.0925 48.0622 34.8195L52.3877 30.1543L45.511 23.975C45.2083 23.7034 45.0415 23.3148 45.0559 22.9128C45.0697 22.5107 45.2632 22.1342 45.5844 21.8834L53.7542 15.5018L50.9003 11.3159C49.6141 9.44217 50.0122 6.91425 51.8153 5.50776C56.3638 1.96262 61.9995 0.0223087 67.8124 0.00012207H68.2791C77.1812 0.1561 84.6001 5.57432 88.1239 14.4906C91.4638 22.9423 90.8694 35.1322 82.0167 43.3163L51.7267 71.3244C51.2566 71.7588 50.6347 72.0008 49.9881 72.0001ZM49.2853 65.9788L50.1289 69.0177L80.0866 41.3175C87.9908 34.0101 88.5021 23.0815 85.5027 15.4904C82.4045 7.65313 75.9465 2.89177 68.2269 2.75394H67.8048C62.6193 2.77747 57.5931 4.51138 53.5373 7.67666C52.8915 8.19368 52.7583 9.11005 53.2312 9.78304L56.8031 15.0224C57.2094 15.6174 57.0824 16.4182 56.5107 16.8646L48.6147 23.0318L55.3171 29.053C55.8875 29.5654 55.9279 30.4333 55.407 30.9947L51.1001 35.6404L56.6184 40.4018C57.1627 40.8711 57.2526 41.6691 56.8271 42.2439L51.8461 48.9577L52.3472 59.0089C52.3575 59.2274 52.3142 59.4452 52.2216 59.6436L49.2853 65.9788Z" fill="#B68C5A"/>
<path d="M21.8623 20.6537C19.2116 20.6523 17.0379 18.5944 16.9473 15.9992C16.8567 13.4047 18.8815 11.2056 21.526 11.0268C24.1699 10.8479 26.4836 12.7539 26.7582 15.3363C27.0389 17.9839 25.0752 20.3532 22.3723 20.6275C22.2028 20.645 22.0326 20.6537 21.8623 20.6537ZM21.8623 13.7691C21.7889 13.7691 21.7155 13.7732 21.6427 13.7819C20.4841 13.8996 19.6433 14.9154 19.7634 16.0497C19.8842 17.1845 20.9213 18.0088 22.0799 17.8905C23.2378 17.7715 24.0793 16.7556 23.9578 15.6214C23.8466 14.5692 22.942 13.7698 21.8623 13.7691Z" fill="#B68C5A"/>
<path d="M15.5368 33.046C14.7598 33.046 14.1311 32.4295 14.1311 31.6691V23.4077C14.1311 22.8153 14.5182 22.2896 15.092 22.1027L19.309 20.7258C20.0469 20.4851 20.8438 20.8764 21.0888 21.5984C21.3345 22.3212 20.935 23.1017 20.1979 23.3418L16.9425 24.4007V31.6691C16.9425 32.4295 16.3131 33.046 15.5368 33.046Z" fill="#B68C5A"/>
<path d="M28.1879 33.046C27.4109 33.046 26.7822 32.4295 26.7822 31.6691V24.4006L23.5261 23.3363C22.7889 23.0956 22.3901 22.3151 22.6352 21.593C22.8802 20.8703 23.6771 20.4797 24.4149 20.7203L28.6319 22.0973C29.2078 22.2848 29.5949 22.8133 29.5935 23.4076V31.6691C29.5935 32.4295 28.9641 33.046 28.1879 33.046Z" fill="#B68C5A"/>
<path d="M75.9808 39.9305C75.2512 39.9339 74.641 39.39 74.5751 38.6793L73.2518 24.4295L69.9079 23.3363C69.1707 23.0956 68.7712 22.3151 69.017 21.593C69.262 20.8703 70.0589 20.4797 70.7967 20.7203L75.0137 22.0973C75.5429 22.2694 75.9184 22.7326 75.9691 23.2772L77.3748 38.4232C77.4119 38.7876 77.2993 39.152 77.0612 39.435C76.823 39.7181 76.4798 39.8962 76.1071 39.9305C76.0645 39.9305 76.0213 39.9305 75.9808 39.9305Z" fill="#B68C5A"/>
<path d="M61.924 39.9306H60.5183C60.1223 39.9326 59.7434 39.7699 59.4758 39.4841C59.2081 39.1984 59.0763 38.8152 59.1127 38.4286L60.5183 23.2826C60.5691 22.738 60.9446 22.2748 61.4738 22.1027L65.6908 20.7258C66.4286 20.4851 67.2255 20.8764 67.4705 21.5984C67.7156 22.3212 67.3168 23.1017 66.5796 23.3418L63.235 24.435L62.064 37.1835C62.8094 37.2568 63.3654 37.8901 63.3276 38.6229C63.2906 39.3557 62.6728 39.9306 61.924 39.9306Z" fill="#B68C5A"/>
<path d="M68.2496 20.6537C65.5988 20.6523 63.4251 18.5944 63.3345 15.9992C63.2439 13.4047 65.2687 11.2056 67.9132 11.0268C70.5571 10.8479 72.8708 12.7539 73.1454 15.3363C73.4261 17.9839 71.4624 20.3532 68.7595 20.6275C68.59 20.645 68.4198 20.6537 68.2496 20.6537ZM68.2496 13.7691C68.1761 13.7691 68.1027 13.7732 68.0299 13.7819C66.8713 13.8996 66.0305 14.9154 66.1507 16.0497C66.2715 17.1845 67.3086 18.0088 68.4671 17.8905C69.625 17.7715 70.4665 16.7556 70.345 15.6214C70.2338 14.5692 69.3292 13.7698 68.2496 13.7691Z" fill="#B68C5A"/>
<path d="M19.7537 45.4381C18.9768 45.4381 18.3481 44.8216 18.3481 44.0612V31.669C18.3481 30.9086 18.9768 30.2921 19.7537 30.2921C20.53 30.2921 21.1594 30.9086 21.1594 31.669V44.0612C21.1594 44.8216 20.53 45.4381 19.7537 45.4381Z" fill="#B68C5A"/>
<path d="M23.9708 45.4381C23.1939 45.4381 22.5652 44.8216 22.5652 44.0612V31.669C22.5652 30.9086 23.1939 30.2921 23.9708 30.2921C24.7471 30.2921 25.3765 30.9086 25.3765 31.669V44.0612C25.3765 44.8216 24.7471 45.4381 23.9708 45.4381Z" fill="#B68C5A"/>
<path d="M66.1411 45.4381C65.3641 45.4381 64.7354 44.8216 64.7354 44.0612V34.4228C64.7354 33.6624 65.3641 33.0459 66.1411 33.0459C66.9174 33.0459 67.5468 33.6624 67.5468 34.4228V44.0612C67.5468 44.8216 66.9174 45.4381 66.1411 45.4381Z" fill="#B68C5A"/>
<path d="M70.3581 45.4381C69.5811 45.4381 68.9524 44.8216 68.9524 44.0612V34.4228C68.9524 33.6624 69.5811 33.0459 70.3581 33.0459C71.1343 33.0459 71.7637 33.6624 71.7637 34.4228V44.0612C71.7637 44.8216 71.1343 45.4381 70.3581 45.4381Z" fill="#B68C5A"/>
<path d="M75.9808 39.9305H74.5752C73.7982 39.9305 73.1695 39.3139 73.1695 38.5535C73.1695 37.7932 73.7982 37.1766 74.5752 37.1766H75.9808C76.7571 37.1766 77.3865 37.7932 77.3865 38.5535C77.3865 39.3139 76.7571 39.9305 75.9808 39.9305Z" fill="#B68C5A"/>
</svg>
