<svg width="70" height="73" viewBox="0 0 70 73" fill="none" xmlns="http://www.w3.org/2000/svg">
<path d="M46.5477 66.1416H3.58059C2.63096 66.1416 1.72022 65.7615 1.04873 65.0849C0.37724 64.4083 0 63.4907 0 62.5338V7.21551C0 6.25868 0.37724 5.34104 1.04873 4.66446C1.72022 3.98789 2.63096 3.60779 3.58059 3.60779H46.5477C47.4973 3.60779 48.4081 3.98789 49.0796 4.66446C49.751 5.34104 50.1283 6.25868 50.1283 7.21551V62.5338C50.1283 63.4907 49.751 64.4083 49.0796 65.0849C48.4081 65.7615 47.4973 66.1416 46.5477 66.1416ZM3.58059 6.01293C3.26405 6.01293 2.96047 6.13963 2.73664 6.36516C2.51281 6.59068 2.38706 6.89656 2.38706 7.21551V62.5338C2.38706 62.8528 2.51281 63.1587 2.73664 63.3842C2.96047 63.6097 3.26405 63.7364 3.58059 63.7364H46.5477C46.8642 63.7364 47.1678 63.6097 47.3917 63.3842C47.6155 63.1587 47.7412 62.8528 47.7412 62.5338V7.21551C47.7412 6.89656 47.6155 6.59068 47.3917 6.36516C47.1678 6.13963 46.8642 6.01293 46.5477 6.01293H3.58059Z" fill="#B68C5A"/>
<path d="M52.5153 72.1544H9.54824C8.59861 72.1544 7.68787 71.7743 7.01638 71.0978C6.34489 70.4212 5.96765 69.5036 5.96765 68.5467C5.96765 68.2278 6.0934 67.9219 6.31723 67.6964C6.54106 67.4709 6.84464 67.3442 7.16118 67.3442C7.47773 67.3442 7.78131 67.4709 8.00514 67.6964C8.22897 67.9219 8.35471 68.2278 8.35471 68.5467C8.35471 68.8657 8.48046 69.1715 8.70429 69.3971C8.92812 69.6226 9.2317 69.7493 9.54824 69.7493H52.5153C52.8319 69.7493 53.1355 69.6226 53.3593 69.3971C53.5831 69.1715 53.7089 68.8657 53.7089 68.5467V12.0258C53.7089 11.7069 53.5831 11.401 53.3593 11.1755C53.1355 10.9499 52.8319 10.8232 52.5153 10.8232C52.1988 10.8232 51.8952 10.6965 51.6714 10.471C51.4476 10.2455 51.3218 9.93961 51.3218 9.62066C51.3218 9.30172 51.4476 8.99584 51.6714 8.77032C51.8952 8.54479 52.1988 8.41809 52.5153 8.41809C53.465 8.41809 54.3757 8.79819 55.0472 9.47477C55.7187 10.1513 56.0959 11.069 56.0959 12.0258V68.5467C56.0959 69.5036 55.7187 70.4212 55.0472 71.0978C54.3757 71.7743 53.465 72.1544 52.5153 72.1544Z" fill="#B68C5A"/>
<path d="M9.54827 9.6207C9.23172 9.6207 8.92814 9.494 8.70431 9.26848C8.48048 9.04295 8.35474 8.73707 8.35474 8.41813V1.20269C8.35474 0.883753 8.48048 0.577873 8.70431 0.352347C8.92814 0.126821 9.23172 0.00012207 9.54827 0.00012207C9.86481 0.00012207 10.1684 0.126821 10.3922 0.352347C10.6161 0.577873 10.7418 0.883753 10.7418 1.20269V8.41813C10.7418 8.73707 10.6161 9.04295 10.3922 9.26848C10.1684 9.494 9.86481 9.6207 9.54827 9.6207Z" fill="#B68C5A"/>
<path d="M19.0965 9.6207C18.7799 9.6207 18.4764 9.494 18.2525 9.26848C18.0287 9.04295 17.903 8.73707 17.903 8.41813V1.20269C17.903 0.883753 18.0287 0.577873 18.2525 0.352347C18.4764 0.126821 18.7799 0.00012207 19.0965 0.00012207C19.413 0.00012207 19.7166 0.126821 19.9404 0.352347C20.1643 0.577873 20.29 0.883753 20.29 1.20269V8.41813C20.29 8.73707 20.1643 9.04295 19.9404 9.26848C19.7166 9.494 19.413 9.6207 19.0965 9.6207Z" fill="#B68C5A"/>
<path d="M31.0318 9.6207C30.7152 9.6207 30.4117 9.494 30.1878 9.26848C29.964 9.04295 29.8383 8.73707 29.8383 8.41813V1.20269C29.8383 0.883753 29.964 0.577873 30.1878 0.352347C30.4117 0.126821 30.7152 0.00012207 31.0318 0.00012207C31.3483 0.00012207 31.6519 0.126821 31.8757 0.352347C32.0996 0.577873 32.2253 0.883753 32.2253 1.20269V8.41813C32.2253 8.73707 32.0996 9.04295 31.8757 9.26848C31.6519 9.494 31.3483 9.6207 31.0318 9.6207Z" fill="#B68C5A"/>
<path d="M40.5801 9.6207C40.2635 9.6207 39.9599 9.494 39.7361 9.26848C39.5123 9.04295 39.3865 8.73707 39.3865 8.41813V1.20269C39.3865 0.883753 39.5123 0.577873 39.7361 0.352347C39.9599 0.126821 40.2635 0.00012207 40.5801 0.00012207C40.8966 0.00012207 41.2002 0.126821 41.424 0.352347C41.6479 0.577873 41.7736 0.883753 41.7736 1.20269V8.41813C41.7736 8.73707 41.6479 9.04295 41.424 9.26848C41.2002 9.494 40.8966 9.6207 40.5801 9.6207Z" fill="#B68C5A"/>
<path d="M64.4507 60.1287H59.6766C59.36 60.1287 59.0564 60.002 58.8326 59.7765C58.6088 59.551 58.483 59.2451 58.483 58.9262V14.431C58.483 14.112 58.6088 13.8061 58.8326 13.5806C59.0564 13.3551 59.36 13.2284 59.6766 13.2284H64.4507C64.7672 13.2284 65.0708 13.3551 65.2946 13.5806C65.5185 13.8061 65.6442 14.112 65.6442 14.431V58.9262C65.6442 59.2451 65.5185 59.551 65.2946 59.7765C65.0708 60.002 64.7672 60.1287 64.4507 60.1287ZM60.8701 57.7236H63.2572V15.6335H60.8701V57.7236Z" fill="#B68C5A"/>
<path d="M64.4507 15.6336H59.6766C59.36 15.6336 59.0564 15.5069 58.8326 15.2814C58.6088 15.0558 58.483 14.75 58.483 14.431V8.41815C58.483 8.09921 58.6088 7.79333 58.8326 7.5678C59.0564 7.34228 59.36 7.21558 59.6766 7.21558H64.4507C64.7672 7.21558 65.0708 7.34228 65.2946 7.5678C65.5185 7.79333 65.6442 8.09921 65.6442 8.41815V14.431C65.6442 14.75 65.5185 15.0558 65.2946 15.2814C65.0708 15.5069 64.7672 15.6336 64.4507 15.6336ZM60.8701 13.2284H63.2572V9.62072H60.8701V13.2284Z" fill="#B68C5A"/>
<path d="M68.0312 32.4696C67.7147 32.4696 67.4111 32.3429 67.1872 32.1173C66.9634 31.8918 66.8377 31.5859 66.8377 31.267V15.6335H64.4506C64.1341 15.6335 63.8305 15.5068 63.6067 15.2813C63.3828 15.0558 63.2571 14.7499 63.2571 14.431C63.2571 14.112 63.3828 13.8061 63.6067 13.5806C63.8305 13.3551 64.1341 13.2284 64.4506 13.2284H68.0312C68.3477 13.2284 68.6513 13.3551 68.8752 13.5806C69.099 13.8061 69.2247 14.112 69.2247 14.431V31.267C69.2247 31.5859 69.099 31.8918 68.8752 32.1173C68.6513 32.3429 68.3477 32.4696 68.0312 32.4696Z" fill="#B68C5A"/>
<path d="M62.0636 67.3443C61.8132 67.3441 61.5692 67.2646 61.3662 67.1169C61.1631 66.9693 61.0113 66.7611 60.9322 66.5217L58.5451 59.3063C58.4451 59.0033 58.4686 58.6727 58.6105 58.3872C58.7524 58.1016 59.0011 57.8846 59.3018 57.7838C59.6025 57.6831 59.9306 57.7068 60.214 57.8497C60.4974 57.9927 60.7128 58.2433 60.8128 58.5463L62.0636 62.3392L63.3192 58.5463C63.3687 58.3962 63.4471 58.2575 63.5499 58.138C63.6526 58.0185 63.7777 57.9205 63.918 57.8497C64.0583 57.7789 64.2111 57.7367 64.3676 57.7254C64.5241 57.7141 64.6813 57.7339 64.8302 57.7838C64.9791 57.8337 65.1168 57.9127 65.2354 58.0162C65.354 58.1197 65.4513 58.2458 65.5215 58.3872C65.5918 58.5285 65.6337 58.6825 65.6449 58.8402C65.6562 58.9979 65.6365 59.1563 65.5869 59.3063L63.1999 66.5217C63.1205 66.7619 62.9679 66.9707 62.7639 67.1184C62.5599 67.266 62.3148 67.3451 62.0636 67.3443Z" fill="#B68C5A"/>
<path d="M15.5159 26.4566C15.1993 26.4566 14.8957 26.3299 14.6719 26.1044C14.4481 25.8789 14.3223 25.573 14.3223 25.2541V15.6335C14.3223 15.3145 14.4481 15.0087 14.6719 14.7831C14.8957 14.5576 15.1993 14.4309 15.5159 14.4309C15.8324 14.4309 16.136 14.5576 16.3598 14.7831C16.5836 15.0087 16.7094 15.3145 16.7094 15.6335V25.2541C16.7094 25.573 16.5836 25.8789 16.3598 26.1044C16.136 26.3299 15.8324 26.4566 15.5159 26.4566Z" fill="#B68C5A"/>
<path d="M19.0965 16.8361H11.9353C11.6187 16.8361 11.3152 16.7094 11.0913 16.4838C10.8675 16.2583 10.7418 15.9524 10.7418 15.6335C10.7418 15.3145 10.8675 15.0087 11.0913 14.7831C11.3152 14.5576 11.6187 14.4309 11.9353 14.4309H19.0965C19.413 14.4309 19.7166 14.5576 19.9404 14.7831C20.1643 15.0087 20.29 15.3145 20.29 15.6335C20.29 15.9524 20.1643 16.2583 19.9404 16.4838C19.7166 16.7094 19.413 16.8361 19.0965 16.8361Z" fill="#B68C5A"/>
<path d="M20.29 26.4568C20.1467 26.4562 20.0045 26.4305 19.8699 26.381C19.7229 26.3255 19.5883 26.2414 19.4736 26.1335C19.359 26.0255 19.2666 25.8958 19.2017 25.7518C19.1369 25.6079 19.1008 25.4524 19.0957 25.2944C19.0905 25.1363 19.1163 24.9788 19.1717 24.8309L22.7523 15.2103C22.8071 15.0623 22.8904 14.9267 22.9972 14.8111C23.1041 14.6956 23.2326 14.6024 23.3752 14.5368C23.5178 14.4713 23.6719 14.4347 23.8286 14.4291C23.9852 14.4235 24.1415 14.4491 24.2883 14.5044C24.4352 14.5597 24.5698 14.6435 24.6845 14.7512C24.7992 14.8589 24.8917 14.9883 24.9568 15.132C25.0218 15.2758 25.0581 15.431 25.0637 15.5888C25.0692 15.7467 25.0438 15.9041 24.9889 16.0521L21.4083 25.6727C21.3236 25.9027 21.171 26.1011 20.9711 26.2413C20.7712 26.3815 20.5335 26.4566 20.29 26.4568Z" fill="#B68C5A"/>
<path d="M27.4512 26.4567C27.2082 26.457 26.971 26.3825 26.7711 26.2432C26.5713 26.104 26.4184 25.9066 26.3329 25.6774L22.7523 16.0569C22.6415 15.758 22.6531 15.4271 22.7845 15.1368C22.9159 14.8466 23.1563 14.6208 23.4529 14.5091C23.7495 14.3975 24.078 14.4092 24.366 14.5416C24.6541 14.6739 24.8782 14.9162 24.989 15.2151L28.5696 24.8356C28.6249 24.9836 28.6507 25.1411 28.6455 25.2991C28.6404 25.4572 28.6044 25.6126 28.5395 25.7566C28.4746 25.9006 28.3823 26.0303 28.2676 26.1382C28.153 26.2462 28.0183 26.3303 27.8713 26.3858C27.7364 26.4337 27.5943 26.4577 27.4512 26.4567Z" fill="#B68C5A"/>
<path d="M38.193 26.4566C38.0077 26.4566 37.8249 26.4132 37.6592 26.3297C37.4935 26.2462 37.3493 26.125 37.2382 25.9756L30.077 16.355C29.887 16.0999 29.8055 15.7792 29.8503 15.4634C29.895 15.1477 30.0624 14.8628 30.3157 14.6714C30.5689 14.4801 30.8872 14.3979 31.2006 14.443C31.5139 14.4881 31.7967 14.6568 31.9866 14.9119L39.1478 24.5325C39.2808 24.7112 39.3618 24.9236 39.3817 25.1461C39.4016 25.3685 39.3596 25.5921 39.2605 25.7919C39.1614 25.9916 39.009 26.1596 38.8205 26.277C38.6319 26.3944 38.4146 26.4566 38.193 26.4566Z" fill="#B68C5A"/>
<path d="M31.0318 26.4566C30.8101 26.4566 30.5929 26.3944 30.4043 26.277C30.2158 26.1596 30.0634 25.9916 29.9643 25.7919C29.8651 25.5921 29.8232 25.3685 29.8431 25.1461C29.863 24.9236 29.944 24.7112 30.077 24.5325L37.2381 14.9119C37.3322 14.7856 37.45 14.6792 37.5849 14.5987C37.7197 14.5182 37.869 14.4653 38.0242 14.443C38.1793 14.4207 38.3374 14.4293 38.4892 14.4685C38.641 14.5077 38.7837 14.5767 38.9091 14.6714C39.0345 14.7662 39.1401 14.8849 39.22 15.0208C39.2998 15.1567 39.3523 15.3071 39.3745 15.4634C39.3967 15.6197 39.3881 15.779 39.3492 15.9319C39.3103 16.0849 39.2418 16.2287 39.1478 16.355L31.9866 25.9756C31.8754 26.125 31.7313 26.2462 31.5656 26.3297C31.3998 26.4132 31.2171 26.4566 31.0318 26.4566Z" fill="#B68C5A"/>
<path d="M26.2577 24.0515H21.4836C21.167 24.0515 20.8634 23.9248 20.6396 23.6993C20.4158 23.4738 20.29 23.1679 20.29 22.8489C20.29 22.53 20.4158 22.2241 20.6396 21.9986C20.8634 21.7731 21.167 21.6464 21.4836 21.6464H26.2577C26.5742 21.6464 26.8778 21.7731 27.1016 21.9986C27.3255 22.2241 27.4512 22.53 27.4512 22.8489C27.4512 23.1679 27.3255 23.4738 27.1016 23.6993C26.8778 23.9248 26.5742 24.0515 26.2577 24.0515Z" fill="#B68C5A"/>
<path d="M27.4512 33.6722H9.54827C9.23172 33.6722 8.92814 33.5455 8.70431 33.32C8.48048 33.0945 8.35474 32.7886 8.35474 32.4697C8.35474 32.1507 8.48048 31.8448 8.70431 31.6193C8.92814 31.3938 9.23172 31.2671 9.54827 31.2671H27.4512C27.7678 31.2671 28.0714 31.3938 28.2952 31.6193C28.519 31.8448 28.6448 32.1507 28.6448 32.4697C28.6448 32.7886 28.519 33.0945 28.2952 33.32C28.0714 33.5455 27.7678 33.6722 27.4512 33.6722Z" fill="#B68C5A"/>
<path d="M40.5801 39.6851H9.54827C9.23172 39.6851 8.92814 39.5584 8.70431 39.3328C8.48048 39.1073 8.35474 38.8014 8.35474 38.4825C8.35474 38.1635 8.48048 37.8577 8.70431 37.6321C8.92814 37.4066 9.23172 37.2799 9.54827 37.2799H40.5801C40.8966 37.2799 41.2002 37.4066 41.424 37.6321C41.6479 37.8577 41.7736 38.1635 41.7736 38.4825C41.7736 38.8014 41.6479 39.1073 41.424 39.3328C41.2002 39.5584 40.8966 39.6851 40.5801 39.6851Z" fill="#B68C5A"/>
<path d="M40.5801 45.6979H9.54827C9.23172 45.6979 8.92814 45.5712 8.70431 45.3456C8.48048 45.1201 8.35474 44.8142 8.35474 44.4953C8.35474 44.1764 8.48048 43.8705 8.70431 43.6449C8.92814 43.4194 9.23172 43.2927 9.54827 43.2927H40.5801C40.8966 43.2927 41.2002 43.4194 41.424 43.6449C41.6479 43.8705 41.7736 44.1764 41.7736 44.4953C41.7736 44.8142 41.6479 45.1201 41.424 45.3456C41.2002 45.5712 40.8966 45.6979 40.5801 45.6979Z" fill="#B68C5A"/>
<path d="M40.5801 51.7107H9.54827C9.23172 51.7107 8.92814 51.584 8.70431 51.3585C8.48048 51.1329 8.35474 50.8271 8.35474 50.5081C8.35474 50.1892 8.48048 49.8833 8.70431 49.6578C8.92814 49.4322 9.23172 49.3055 9.54827 49.3055H40.5801C40.8966 49.3055 41.2002 49.4322 41.424 49.6578C41.6479 49.8833 41.7736 50.1892 41.7736 50.5081C41.7736 50.8271 41.6479 51.1329 41.424 51.3585C41.2002 51.584 40.8966 51.7107 40.5801 51.7107Z" fill="#B68C5A"/>
<path d="M40.5801 57.7235H9.54827C9.23172 57.7235 8.92814 57.5968 8.70431 57.3713C8.48048 57.1458 8.35474 56.8399 8.35474 56.5209C8.35474 56.202 8.48048 55.8961 8.70431 55.6706C8.92814 55.4451 9.23172 55.3184 9.54827 55.3184H40.5801C40.8966 55.3184 41.2002 55.4451 41.424 55.6706C41.6479 55.8961 41.7736 56.202 41.7736 56.5209C41.7736 56.8399 41.6479 57.1458 41.424 57.3713C41.2002 57.5968 40.8966 57.7235 40.5801 57.7235Z" fill="#B68C5A"/>
</svg>
